<svg width="213" height="176" viewBox="0 0 213 176" fill="none" xmlns="http://www.w3.org/2000/svg">
<path d="M156 175H114V5.52468e-06H156V175Z" fill="url(#paint0_linear_3_146)"/>
<rect x="42" y="175" width="42" height="175" transform="rotate(180 42 175)" fill="url(#paint1_linear_3_146)"/>
<path d="M155 79.5L213 67V106.5L155 95.5V79.5Z" fill="url(#paint2_linear_3_146)"/>
<rect x="156" width="42" height="156" transform="rotate(90 156 0)" fill="#E50914"/>
<path d="M213 175.044L155 105.431V92L213 124.939V175.044Z" fill="url(#paint3_linear_3_146)"/>
<path d="M213 0L155 69.6128V83.0443L213 50.1052V0Z" fill="url(#paint4_linear_3_146)"/>
<defs>
<linearGradient id="paint0_linear_3_146" x1="135" y1="0" x2="135" y2="175" gradientUnits="userSpaceOnUse">
<stop offset="0.514423" stop-color="#E50914"/>
<stop offset="0.8" stop-color="#B1060F"/>
</linearGradient>
<linearGradient id="paint1_linear_3_146" x1="63" y1="350" x2="63" y2="175" gradientUnits="userSpaceOnUse">
<stop offset="0.2" stop-color="#E50914"/>
<stop offset="0.798077" stop-color="#B1060F"/>
</linearGradient>
<linearGradient id="paint2_linear_3_146" x1="155" y1="88.5" x2="213" y2="88.5" gradientUnits="userSpaceOnUse">
<stop offset="0.6" stop-color="#E50914"/>
<stop offset="1" stop-color="#B1060F"/>
</linearGradient>
<linearGradient id="paint3_linear_3_146" x1="155" y1="123.5" x2="213" y2="123.5" gradientUnits="userSpaceOnUse">
<stop offset="0.692308" stop-color="#E50914"/>
<stop offset="1" stop-color="#B1060F"/>
</linearGradient>
<linearGradient id="paint4_linear_3_146" x1="155" y1="51.5443" x2="213" y2="51.5443" gradientUnits="userSpaceOnUse">
<stop offset="0.692308" stop-color="#E50914"/>
<stop offset="1" stop-color="#B1060F"/>
</linearGradient>
</defs>
</svg>
